# xmcd
#
# Track frame offsets: 
#        150
#        32190
#        63625
#        84410
#        101460
#        134560
#
# Disc length: 2123 seconds
#
# Revision: 0
# Processed by: cddbd v1.5PL3 Copyright (c) Steve Scherf et al.
# Submitted via: ExactAudioCopy v0.95a4
#
DISCID=4e084906
DTITLE=MFSB - Love Is The Message
DYEAR=1973
DGENRE=
TTITLE0=Zack's Fanfare - Love Is The Message
TTITLE1=Cheaper To Keep Her
TTITLE2=My One And Only Love
TTITLE3=TSOP(The Sound Of Philadelphia)
TTITLE4=Zack's Fanfare(I Hear Music) - Touch Me The Morning
TTITLE5=Bitter Sweet
EXTD=
EXTT0=
EXTT1=
EXTT2=
EXTT3=
EXTT4=
EXTT5=
PLAYORDER=
